<?xml version="1.0" encoding="utf-8"?><!-- Generator: Adobe Illustrator 15.0.0, SVG Export Plug-In . SVG Version: 6.00 Build 0)  --><!DOCTYPE svg PUBLIC "-//W3C//DTD SVG 1.1//EN" "http://www.w3.org/Graphics/SVG/1.1/DTD/svg11.dtd"><svg xmlns="http://www.w3.org/2000/svg" xmlns:xlink="http://www.w3.org/1999/xlink" viewBox="0 0 48 48" width="48px" height="48px"><g><rect x="9" y="28" fill="#607D8B" width="3" height="14"/><rect x="9" y="39" fill="#607D8B" width="26" height="3"/><rect x="32" y="28" fill="#607D8B" width="3" height="14"/><rect x="15" y="34" fill="#607D8B" width="14" height="3"/></g><rect x="14.88" y="29" transform="matrix(0.9943 0.107 -0.107 0.9943 3.3891 -2.1661)" fill="#A68A6E" width="14" height="3"/><rect x="29.452" y="11.646" transform="matrix(0.1524 0.9883 -0.9883 0.1524 43.8912 -24.8825)" fill="#EF6C00" width="13.999" height="3.001"/><rect x="23.576" y="13.578" transform="matrix(0.488 0.8728 -0.8728 0.488 28.8149 -18.9673)" fill="#FF9800" width="13.998" height="3.001"/><rect x="18.395" y="18.275" transform="matrix(0.8215 0.5702 -0.5702 0.8215 15.8103 -10.9505)" fill="#D38B28" width="13.998" height="3.001"/><rect x="15.977" y="23.499" transform="matrix(0.941 0.3385 -0.3385 0.941 9.8201 -6.3022)" fill="#C09553" width="13.999" height="3.001"/></svg>